{"title":"The Grey 2012 SCR XviD Ac3 Feel-Free","uid":7042231,"size":1273321622,"categoryP":"video","categoryS":"movies","magnet":"?xt=urn:btih:4c55ad898e915a5b3d4e856f1a1fc80d448f1c05&amp;dn=The+Grey+2012+SCR+XviD+Ac3+Feel-Free&amp;tr=udp%3A%2F%2Ftracker.openbittorrent.com%3A80&amp;tr=udp%3A%2F%2Fopen.demonii.com%3A1337&amp;tr=udp%3A%2F%2Ftracker.coppersurfer.tk%3A6969&amp;tr=udp%3A%2F%2Fexodus.desync.com%3A6969","seeders":2,"leechers":0,"uploader":"kage_dk","files":8,"time":1329591542,"description":"Genre:Action | Adventure | Drama\nLanguage:English\nIMDb:http://www.imdb.com/title/tt1601913/\nSource:SCR X264 AC3 CrEwSaDe Thanks!\nEncoder:Tony\n\nFormat : AVI\nFormat/Info : Audio Video Interleave\nFile size : 1.19 GiB\nDuration : 1h 56mn\nOverall bit rate : 1 451 Kbps\n\nVideo\nID : 0\nFormat : MPEG-4 Visual\nFormat profile : Advanced Simple@L5\nFormat settings, BVOP : 1\nFormat settings, QPel : No\nFormat settings, GMC : No warppoints\nFormat settings, Matrix : Default (H.263)\nCodec ID : XVID\nCodec ID/Hint : XviD\nDuration : 1h 56mn\nBit rate : 1 250 Kbps\nWidth : 640 pixels\nHeight : 272 pixels\nDisplay aspect ratio : 2.35:1\nFrame rate : 23.976 fps\nColor space : YUV\nChroma subsampling : 4:2:0\nBit depth : 8 bits\nScan type : Progressive\nCompression mode : Lossy\nBits/(Pixel*Frame) : 0.299\nStream size : 1.02 GiB (86%)\nWriting library : XviD 1.2.1 (UTC 2008-12-04) &lt;a href=&quot;\nhttp://img816.imageshack.us/img816/9329/vlcsnap2012021818h25m32.png&quot; rel=&quot;nofollow&quot; target=&quot;_NEW&quot;&gt;\nhttp://img816.imageshack.us/img816/9329/vlcsnap2012021818h25m32.png&lt;/a&gt; &lt;a href=&quot;\nhttp://img600.imageshack.us/img600/7200/vlcsnap2012021818h26m03.png&quot; rel=&quot;nofollow&quot; target=&quot;_NEW&quot;&gt;\nhttp://img600.imageshack.us/img600/7200/vlcsnap2012021818h26m03.png&lt;/a&gt;\nAudio\nID : 1\nFormat : AC-3\nFormat/Info : Audio Coding 3\nMode extension : CM (complete main)\nCodec ID : 2000\nDuration : 1h 56mn\nBit rate mode : Constant\nBit rate : 192 Kbps\nChannel(s) : 2 channels\nChannel positions : Front: L R\nSampling rate : 48.0 KHz\nBit depth : 16 bits\nCompression mode : Lossy\nStream size : 161 MiB (13%)\nAlignment : Aligned on interleaves\nInterleave, duration : 42 ms (1.00 video frame)\nInterleave, preload duration : 512 ms\n\n\nPlot:\nIn Alaska, an oil drilling team struggle to survive after a plane crash strands them in the wild. Hunting the humans are a pack of wolves who see them as intruders\n\nGreets:\n\nCRYS,IMAGINE,LKRG,FXG,3Li,FLAWL3SS,TA,iLLUSiON,EMBER,HOPE,GooN,BBnRG,NOGRP,ETRG,BHRG,iLLUMiNATi,MiSTERE.ViSiON,DTRG SAFCuk009,LU,TheFalcon007,MYSTiC,PrisM,Noir,WBZ,LAP,Rx,Kingdom,SAFCuk009+Fabreezy,HDLiTE,TWiZTED,ExtraTorrentRG.ELEKTRI4KA,MAGNAT,CM8\nAnd to all the other p2p grps past and present\n\n\n\n\nMake sure its a real Feel-Free release @\n\nThanks to all who promotes release Feel-Free !!!","torrent":{"xt":"urn:btih:4c55ad898e915a5b3d4e856f1a1fc80d448f1c05","amp;dn":"The+Grey+2012+SCR+XviD+Ac3+Feel-Free","amp;tr":["udp%3A%2F%2Ftracker.openbittorrent.com%3A80","udp%3A%2F%2Fopen.demonii.com%3A1337","udp%3A%2F%2Ftracker.coppersurfer.tk%3A6969","udp%3A%2F%2Fexodus.desync.com%3A6969"],"infoHash":"4c55ad898e915a5b3d4e856f1a1fc80d448f1c05","infoHashBuffer":{"type":"Buffer","data":[76,85,173,137,142,145,90,91,61,78,133,111,26,31,200,13,68,143,28,5]},"announce":[],"urlList":[]}}